<?xml version="1.0" encoding="utf-8"?>
<!-- Generator: Adobe Illustrator 19.2.1, SVG Export Plug-In . SVG Version: 6.00 Build 0)  -->
<svg version="1.1" id="Layer_2" xmlns="http://www.w3.org/2000/svg" xmlns:xlink="http://www.w3.org/1999/xlink" x="0px" y="0px"
	 viewBox="0 0 300 200" style="enable-background:new 0 0 300 200;" xml:space="preserve">
<style type="text/css">
	.st0{fill:#676868;}
	.st1{fill:#FFFFFF;}
	.st2{fill:#E5E5E5;}
	.st3{fill:#B4B2B4;}
	.st4{fill:#ED7061;}
	.st5{fill:#FFCC68;}
	.st6{fill:#F68637;}
	.st7{opacity:0.26;fill:#848484;enable-background:new    ;}
</style>
<g>
	<g>
		<g id="Band_3_">
			<g>
				<rect x="11.5" y="79.1" class="st0" width="165.6" height="20.7"/>
			</g>
		</g>
		<g id="Container">
			<g>
				<path class="st1" d="M151.2,120.5H37.4c-2.9,0-5.2,2.3-5.2,5.2v20.7c0,2.9,2.3,5.2,5.2,5.2h113.9c2.9,0,5.2-2.3,5.2-5.2v-20.7
					C156.4,122.9,154.1,120.5,151.2,120.5z"/>
			</g>
		</g>
		<g>
			<g id="Card_16_">
				<g>
					<path class="st2" d="M278.6,33.5H133.7c-5.7,0-10.4,4.6-10.4,10.4V137c0,5.7,4.6,10.4,10.4,10.4h144.9
						c5.7,0,10.4-4.6,10.4-10.4V43.9C289,38.2,284.4,33.5,278.6,33.5z"/>
				</g>
			</g>
			<g id="Text_1_">
				<g>
					<path class="st3" d="M195.8,116.3h-46.6c-2.9,0-5.2,2.3-5.2,5.2c0,2.9,2.3,5.2,5.2,5.2h46.6c2.9,0,5.2-2.3,5.2-5.2
						C201,118.6,198.7,116.3,195.8,116.3z"/>
				</g>
			</g>
			<g id="Elipse_6_">
				<g>
					<ellipse class="st4" cx="216.5" cy="74.9" rx="20.7" ry="20.7"/>
				</g>
			</g>
			<g id="Elipse_7_">
				<g>
					<ellipse class="st5" cx="247.6" cy="74.9" rx="20.7" ry="20.7"/>
				</g>
			</g>
		</g>
		<g id="Card_1_">
			<g>
				<path class="st6" d="M166.8,54.2h-145c-5.7,0-10.3,4.6-10.3,10.3v93.2c0,5.7,4.6,10.3,10.3,10.3h144.9c5.7,0,10.4-4.6,10.4-10.3
					V64.6C177.1,58.9,172.5,54.2,166.8,54.2z"/>
			</g>
		</g>
		<g id="Container_1_">
			<g>
				<path class="st1" d="M151.2,116.3H37.4c-2.9,0-5.2,2.3-5.2,5.2v20.7c0,2.9,2.3,5.2,5.2,5.2h113.9c2.9,0,5.2-2.3,5.2-5.2v-20.7
					C156.4,118.6,154.1,116.3,151.2,116.3z"/>
			</g>
		</g>
		<g id="Band_1_">
			<g>
				<rect x="11.5" y="74.9" class="st0" width="165.6" height="20.7"/>
			</g>
		</g>
	</g>
	<path class="st7" d="M166.6,54.2h-28.8L51.2,168.1h115.4c5.8,0,10.5-4.7,10.5-10.5V64.7C177.1,59,172.4,54.2,166.6,54.2z"/>
	<g id="Band_4_">
		<g>
			<rect x="11.5" y="74.9" class="st0" width="165.6" height="20.7"/>
		</g>
	</g>
</g>
</svg>
